<mxfile host="Electron" modified="2024-04-11T20:23:59.000Z" agent="Mozilla/5.0 (X11; Linux x86_64) AppleWebKit/537.36 (KHTML, like Gecko) draw.io/24.0.4 Chrome/120.0.6099.109 Electron/28.1.0 Safari/537.36" etag="l4amedKQ7lVTAcLMLTWN" version="24.0.4" type="device">
  <diagram name="Page-1" id="g7jQOUo30wly0EwfjcqG">
    <mxGraphModel dx="4188" dy="2451" grid="1" gridSize="10" guides="1" tooltips="1" connect="1" arrows="1" fold="1" page="1" pageScale="1" pageWidth="2400" pageHeight="2400" math="0" shadow="0">
      <root>
        <mxCell id="0" />
        <mxCell id="1" parent="0" />
        <mxCell id="b2gdafw9vcIs6ifxPlmt-4" value="Cliente" style="shape=umlActor;verticalLabelPosition=bottom;verticalAlign=top;html=1;" parent="1" vertex="1">
          <mxGeometry x="80" y="1030" width="30" height="60" as="geometry" />
        </mxCell>
        <mxCell id="b2gdafw9vcIs6ifxPlmt-5" value="Gestor&amp;nbsp; de Mazos&lt;div&gt;(servicio)&lt;/div&gt;" style="shape=umlActor;verticalLabelPosition=bottom;verticalAlign=top;html=1;" parent="1" vertex="1">
          <mxGeometry x="80" y="1500" width="30" height="60" as="geometry" />
        </mxCell>
        <mxCell id="b2gdafw9vcIs6ifxPlmt-27" value="Papelera de mazos" style="swimlane;" parent="1" vertex="1">
          <mxGeometry x="200" y="530" width="440" height="320" as="geometry" />
        </mxCell>
        <mxCell id="b2gdafw9vcIs6ifxPlmt-29" value="Recuperar mazo/s" style="strokeWidth=2;html=1;shape=mxgraph.flowchart.start_1;whiteSpace=wrap;" parent="b2gdafw9vcIs6ifxPlmt-27" vertex="1">
          <mxGeometry x="10" y="230" width="120" height="60" as="geometry" />
        </mxCell>
        <mxCell id="b2gdafw9vcIs6ifxPlmt-57" value="&lt;div&gt;Escoger todos los mazos&lt;/div&gt;" style="strokeWidth=2;html=1;shape=mxgraph.flowchart.start_1;whiteSpace=wrap;" parent="b2gdafw9vcIs6ifxPlmt-27" vertex="1">
          <mxGeometry x="260" y="80" width="120" height="60" as="geometry" />
        </mxCell>
        <mxCell id="b2gdafw9vcIs6ifxPlmt-58" value="Borrar objeto/s" style="strokeWidth=2;html=1;shape=mxgraph.flowchart.start_1;whiteSpace=wrap;" parent="b2gdafw9vcIs6ifxPlmt-27" vertex="1">
          <mxGeometry x="130" y="230" width="120" height="60" as="geometry" />
        </mxCell>
        <mxCell id="b2gdafw9vcIs6ifxPlmt-60" value="Escoger un mazo" style="strokeWidth=2;html=1;shape=mxgraph.flowchart.start_1;whiteSpace=wrap;" parent="b2gdafw9vcIs6ifxPlmt-27" vertex="1">
          <mxGeometry x="10" y="80" width="120" height="60" as="geometry" />
        </mxCell>
        <mxCell id="oIikqwytzSIiOgdCLlzZ-25" value="" style="endArrow=none;html=1;rounded=0;entryX=0;entryY=0.5;entryDx=0;entryDy=0;entryPerimeter=0;exitX=1;exitY=0.5;exitDx=0;exitDy=0;exitPerimeter=0;" parent="b2gdafw9vcIs6ifxPlmt-27" source="b2gdafw9vcIs6ifxPlmt-60" target="b2gdafw9vcIs6ifxPlmt-57" edge="1">
          <mxGeometry width="50" height="50" relative="1" as="geometry">
            <mxPoint x="230" y="330" as="sourcePoint" />
            <mxPoint x="280" y="280" as="targetPoint" />
          </mxGeometry>
        </mxCell>
        <mxCell id="oIikqwytzSIiOgdCLlzZ-26" value="" style="endArrow=none;html=1;rounded=0;entryX=0.442;entryY=1.05;entryDx=0;entryDy=0;entryPerimeter=0;exitX=0.5;exitY=0;exitDx=0;exitDy=0;exitPerimeter=0;" parent="b2gdafw9vcIs6ifxPlmt-27" source="b2gdafw9vcIs6ifxPlmt-29" target="b2gdafw9vcIs6ifxPlmt-60" edge="1">
          <mxGeometry width="50" height="50" relative="1" as="geometry">
            <mxPoint x="230" y="330" as="sourcePoint" />
            <mxPoint x="280" y="280" as="targetPoint" />
          </mxGeometry>
        </mxCell>
        <mxCell id="oIikqwytzSIiOgdCLlzZ-27" value="" style="endArrow=none;html=1;rounded=0;exitX=0.5;exitY=0;exitDx=0;exitDy=0;exitPerimeter=0;" parent="b2gdafw9vcIs6ifxPlmt-27" source="b2gdafw9vcIs6ifxPlmt-58" target="b2gdafw9vcIs6ifxPlmt-60" edge="1">
          <mxGeometry width="50" height="50" relative="1" as="geometry">
            <mxPoint x="230" y="330" as="sourcePoint" />
            <mxPoint x="280" y="280" as="targetPoint" />
          </mxGeometry>
        </mxCell>
        <mxCell id="b2gdafw9vcIs6ifxPlmt-34" value="Escritorio del Servicio (Mazo workbench)" style="swimlane;" parent="1" vertex="1">
          <mxGeometry x="200" y="40" width="440" height="440" as="geometry" />
        </mxCell>
        <mxCell id="b2gdafw9vcIs6ifxPlmt-35" value="Registrar Usuario" style="strokeWidth=2;html=1;shape=mxgraph.flowchart.start_1;whiteSpace=wrap;" parent="b2gdafw9vcIs6ifxPlmt-34" vertex="1">
          <mxGeometry x="20" y="90" width="120" height="60" as="geometry" />
        </mxCell>
        <mxCell id="b2gdafw9vcIs6ifxPlmt-37" value="Crear/Editar un mazo" style="strokeWidth=2;html=1;shape=mxgraph.flowchart.start_1;whiteSpace=wrap;" parent="b2gdafw9vcIs6ifxPlmt-34" vertex="1">
          <mxGeometry x="20" y="240" width="120" height="60" as="geometry" />
        </mxCell>
        <mxCell id="b2gdafw9vcIs6ifxPlmt-38" value="Eliminar mazos" style="strokeWidth=2;html=1;shape=mxgraph.flowchart.start_1;whiteSpace=wrap;" parent="b2gdafw9vcIs6ifxPlmt-34" vertex="1">
          <mxGeometry x="200" y="350" width="100" height="60" as="geometry" />
        </mxCell>
        <mxCell id="b2gdafw9vcIs6ifxPlmt-39" value="Mirar los mazos" style="strokeWidth=2;html=1;shape=mxgraph.flowchart.start_1;whiteSpace=wrap;" parent="b2gdafw9vcIs6ifxPlmt-34" vertex="1">
          <mxGeometry x="30" y="350" width="100" height="60" as="geometry" />
        </mxCell>
        <mxCell id="oIikqwytzSIiOgdCLlzZ-31" value="" style="endArrow=none;html=1;rounded=0;entryX=0.855;entryY=0.855;entryDx=0;entryDy=0;entryPerimeter=0;exitX=0.2;exitY=0.017;exitDx=0;exitDy=0;exitPerimeter=0;" parent="b2gdafw9vcIs6ifxPlmt-34" source="b2gdafw9vcIs6ifxPlmt-38" target="b2gdafw9vcIs6ifxPlmt-37" edge="1">
          <mxGeometry width="50" height="50" relative="1" as="geometry">
            <mxPoint x="230" y="350" as="sourcePoint" />
            <mxPoint x="280" y="300" as="targetPoint" />
          </mxGeometry>
        </mxCell>
        <mxCell id="b2gdafw9vcIs6ifxPlmt-40" value="Creacion/Edición del Mazo" style="swimlane;" parent="1" vertex="1">
          <mxGeometry x="740" y="40" width="750" height="640" as="geometry" />
        </mxCell>
        <mxCell id="b2gdafw9vcIs6ifxPlmt-69" value="Guardar mazo" style="strokeWidth=2;html=1;shape=mxgraph.flowchart.start_1;whiteSpace=wrap;" parent="b2gdafw9vcIs6ifxPlmt-40" vertex="1">
          <mxGeometry x="50" y="410" width="120" height="60" as="geometry" />
        </mxCell>
        <mxCell id="b2gdafw9vcIs6ifxPlmt-72" value="Crear" style="strokeWidth=2;html=1;shape=mxgraph.flowchart.start_1;whiteSpace=wrap;" parent="b2gdafw9vcIs6ifxPlmt-40" vertex="1">
          <mxGeometry x="40" y="40" width="120" height="60" as="geometry" />
        </mxCell>
        <mxCell id="b2gdafw9vcIs6ifxPlmt-42" value="Añadir cartas" style="strokeWidth=2;html=1;shape=mxgraph.flowchart.start_1;whiteSpace=wrap;" parent="b2gdafw9vcIs6ifxPlmt-40" vertex="1">
          <mxGeometry x="280" y="120" width="120" height="60" as="geometry" />
        </mxCell>
        <mxCell id="b2gdafw9vcIs6ifxPlmt-73" value="Eliminar cartas" style="strokeWidth=2;html=1;shape=mxgraph.flowchart.start_1;whiteSpace=wrap;" parent="b2gdafw9vcIs6ifxPlmt-40" vertex="1">
          <mxGeometry x="280" y="190" width="120" height="60" as="geometry" />
        </mxCell>
        <mxCell id="b2gdafw9vcIs6ifxPlmt-81" value="Importar" style="strokeWidth=2;html=1;shape=mxgraph.flowchart.start_1;whiteSpace=wrap;" parent="b2gdafw9vcIs6ifxPlmt-40" vertex="1">
          <mxGeometry x="280" y="310" width="120" height="60" as="geometry" />
        </mxCell>
        <mxCell id="oIikqwytzSIiOgdCLlzZ-10" value="Nonlands" style="swimlane;" parent="b2gdafw9vcIs6ifxPlmt-40" vertex="1">
          <mxGeometry x="520" y="350" width="230" height="270" as="geometry" />
        </mxCell>
        <mxCell id="oIikqwytzSIiOgdCLlzZ-11" value="Add" style="strokeWidth=2;html=1;shape=mxgraph.flowchart.start_1;whiteSpace=wrap;" parent="oIikqwytzSIiOgdCLlzZ-10" vertex="1">
          <mxGeometry x="40" y="70" width="120" height="60" as="geometry" />
        </mxCell>
        <mxCell id="oIikqwytzSIiOgdCLlzZ-12" value="Delete" style="strokeWidth=2;html=1;shape=mxgraph.flowchart.start_1;whiteSpace=wrap;" parent="oIikqwytzSIiOgdCLlzZ-10" vertex="1">
          <mxGeometry x="40" y="170" width="120" height="60" as="geometry" />
        </mxCell>
        <mxCell id="oIikqwytzSIiOgdCLlzZ-13" value="Lands" style="swimlane;" parent="b2gdafw9vcIs6ifxPlmt-40" vertex="1">
          <mxGeometry x="520" y="80" width="230" height="270" as="geometry" />
        </mxCell>
        <mxCell id="oIikqwytzSIiOgdCLlzZ-14" value="Add" style="strokeWidth=2;html=1;shape=mxgraph.flowchart.start_1;whiteSpace=wrap;" parent="oIikqwytzSIiOgdCLlzZ-13" vertex="1">
          <mxGeometry x="40" y="70" width="120" height="60" as="geometry" />
        </mxCell>
        <mxCell id="oIikqwytzSIiOgdCLlzZ-15" value="Delete" style="strokeWidth=2;html=1;shape=mxgraph.flowchart.start_1;whiteSpace=wrap;" parent="oIikqwytzSIiOgdCLlzZ-13" vertex="1">
          <mxGeometry x="40" y="170" width="120" height="60" as="geometry" />
        </mxCell>
        <mxCell id="oIikqwytzSIiOgdCLlzZ-17" value="" style="endArrow=none;html=1;rounded=0;entryX=1;entryY=0.5;entryDx=0;entryDy=0;entryPerimeter=0;exitX=0.008;exitY=0.317;exitDx=0;exitDy=0;exitPerimeter=0;" parent="b2gdafw9vcIs6ifxPlmt-40" source="oIikqwytzSIiOgdCLlzZ-14" target="b2gdafw9vcIs6ifxPlmt-42" edge="1">
          <mxGeometry width="50" height="50" relative="1" as="geometry">
            <mxPoint x="450" y="490" as="sourcePoint" />
            <mxPoint x="500" y="440" as="targetPoint" />
          </mxGeometry>
        </mxCell>
        <mxCell id="oIikqwytzSIiOgdCLlzZ-18" value="" style="endArrow=none;html=1;rounded=0;entryX=1;entryY=0.5;entryDx=0;entryDy=0;entryPerimeter=0;exitX=0;exitY=0.5;exitDx=0;exitDy=0;exitPerimeter=0;" parent="b2gdafw9vcIs6ifxPlmt-40" source="oIikqwytzSIiOgdCLlzZ-11" target="b2gdafw9vcIs6ifxPlmt-42" edge="1">
          <mxGeometry width="50" height="50" relative="1" as="geometry">
            <mxPoint x="571" y="179" as="sourcePoint" />
            <mxPoint x="410" y="160" as="targetPoint" />
          </mxGeometry>
        </mxCell>
        <mxCell id="oIikqwytzSIiOgdCLlzZ-19" value="" style="endArrow=none;html=1;rounded=0;entryX=1;entryY=0.5;entryDx=0;entryDy=0;entryPerimeter=0;exitX=0;exitY=0.5;exitDx=0;exitDy=0;exitPerimeter=0;" parent="b2gdafw9vcIs6ifxPlmt-40" source="oIikqwytzSIiOgdCLlzZ-12" edge="1">
          <mxGeometry width="50" height="50" relative="1" as="geometry">
            <mxPoint x="560" y="520" as="sourcePoint" />
            <mxPoint x="400" y="220" as="targetPoint" />
          </mxGeometry>
        </mxCell>
        <mxCell id="oIikqwytzSIiOgdCLlzZ-20" value="" style="endArrow=none;html=1;rounded=0;entryX=1;entryY=0.5;entryDx=0;entryDy=0;entryPerimeter=0;exitX=0;exitY=0.5;exitDx=0;exitDy=0;exitPerimeter=0;" parent="b2gdafw9vcIs6ifxPlmt-40" source="oIikqwytzSIiOgdCLlzZ-15" edge="1">
          <mxGeometry width="50" height="50" relative="1" as="geometry">
            <mxPoint x="561" y="239" as="sourcePoint" />
            <mxPoint x="400" y="220" as="targetPoint" />
          </mxGeometry>
        </mxCell>
        <mxCell id="oIikqwytzSIiOgdCLlzZ-32" value="" style="endArrow=none;html=1;rounded=0;entryX=1;entryY=0.5;entryDx=0;entryDy=0;entryPerimeter=0;exitX=0;exitY=0.5;exitDx=0;exitDy=0;exitPerimeter=0;" parent="b2gdafw9vcIs6ifxPlmt-40" source="b2gdafw9vcIs6ifxPlmt-42" target="b2gdafw9vcIs6ifxPlmt-72" edge="1">
          <mxGeometry width="50" height="50" relative="1" as="geometry">
            <mxPoint x="170" y="350" as="sourcePoint" />
            <mxPoint x="220" y="300" as="targetPoint" />
          </mxGeometry>
        </mxCell>
        <mxCell id="oIikqwytzSIiOgdCLlzZ-33" value="" style="endArrow=none;html=1;rounded=0;entryX=1;entryY=0.667;entryDx=0;entryDy=0;entryPerimeter=0;exitX=0;exitY=0.5;exitDx=0;exitDy=0;exitPerimeter=0;" parent="b2gdafw9vcIs6ifxPlmt-40" source="b2gdafw9vcIs6ifxPlmt-73" target="b2gdafw9vcIs6ifxPlmt-72" edge="1">
          <mxGeometry width="50" height="50" relative="1" as="geometry">
            <mxPoint x="170" y="350" as="sourcePoint" />
            <mxPoint x="220" y="300" as="targetPoint" />
          </mxGeometry>
        </mxCell>
        <mxCell id="oIikqwytzSIiOgdCLlzZ-34" value="" style="endArrow=none;html=1;rounded=0;entryX=1;entryY=0.5;entryDx=0;entryDy=0;entryPerimeter=0;exitX=0;exitY=0.367;exitDx=0;exitDy=0;exitPerimeter=0;" parent="b2gdafw9vcIs6ifxPlmt-40" source="b2gdafw9vcIs6ifxPlmt-81" target="b2gdafw9vcIs6ifxPlmt-72" edge="1">
          <mxGeometry width="50" height="50" relative="1" as="geometry">
            <mxPoint x="170" y="350" as="sourcePoint" />
            <mxPoint x="220" y="300" as="targetPoint" />
          </mxGeometry>
        </mxCell>
        <mxCell id="b2gdafw9vcIs6ifxPlmt-46" value="Ver mazo" style="swimlane;" parent="1" vertex="1">
          <mxGeometry x="140" y="930" width="440" height="230" as="geometry" />
        </mxCell>
        <mxCell id="oIikqwytzSIiOgdCLlzZ-1" value="Exportar" style="strokeWidth=2;html=1;shape=mxgraph.flowchart.start_1;whiteSpace=wrap;" parent="b2gdafw9vcIs6ifxPlmt-46" vertex="1">
          <mxGeometry x="310" y="100" width="120" height="60" as="geometry" />
        </mxCell>
        <mxCell id="oIikqwytzSIiOgdCLlzZ-2" value="Copiar" style="strokeWidth=2;html=1;shape=mxgraph.flowchart.start_1;whiteSpace=wrap;" parent="b2gdafw9vcIs6ifxPlmt-46" vertex="1">
          <mxGeometry x="20" y="100" width="120" height="60" as="geometry" />
        </mxCell>
        <mxCell id="oIikqwytzSIiOgdCLlzZ-16" value="Change display" style="strokeWidth=2;html=1;shape=mxgraph.flowchart.start_1;whiteSpace=wrap;" parent="b2gdafw9vcIs6ifxPlmt-46" vertex="1">
          <mxGeometry x="170" y="100" width="120" height="60" as="geometry" />
        </mxCell>
        <mxCell id="b2gdafw9vcIs6ifxPlmt-61" value="Cliente" style="shape=umlActor;verticalLabelPosition=bottom;verticalAlign=top;html=1;" parent="1" vertex="1">
          <mxGeometry x="80" y="250" width="30" height="60" as="geometry" />
        </mxCell>
        <mxCell id="b2gdafw9vcIs6ifxPlmt-62" value="Cliente" style="shape=umlActor;verticalLabelPosition=bottom;verticalAlign=top;html=1;" parent="1" vertex="1">
          <mxGeometry x="80" y="750" width="30" height="60" as="geometry" />
        </mxCell>
        <mxCell id="b2gdafw9vcIs6ifxPlmt-63" value="Cliente" style="shape=umlActor;verticalLabelPosition=bottom;verticalAlign=top;html=1;" parent="1" vertex="1">
          <mxGeometry x="680" y="250" width="30" height="60" as="geometry" />
        </mxCell>
        <mxCell id="oIikqwytzSIiOgdCLlzZ-21" value="" style="endArrow=none;html=1;rounded=0;entryX=0.5;entryY=0;entryDx=0;entryDy=0;entryPerimeter=0;" parent="1" source="b2gdafw9vcIs6ifxPlmt-4" target="oIikqwytzSIiOgdCLlzZ-16" edge="1">
          <mxGeometry width="50" height="50" relative="1" as="geometry">
            <mxPoint x="590" y="1080" as="sourcePoint" />
            <mxPoint x="640" y="1030" as="targetPoint" />
            <Array as="points">
              <mxPoint x="240" y="990" />
            </Array>
          </mxGeometry>
        </mxCell>
        <mxCell id="oIikqwytzSIiOgdCLlzZ-22" value="" style="endArrow=none;html=1;rounded=0;entryX=0;entryY=0.5;entryDx=0;entryDy=0;entryPerimeter=0;" parent="1" source="b2gdafw9vcIs6ifxPlmt-4" target="oIikqwytzSIiOgdCLlzZ-2" edge="1">
          <mxGeometry width="50" height="50" relative="1" as="geometry">
            <mxPoint x="590" y="1080" as="sourcePoint" />
            <mxPoint x="640" y="1030" as="targetPoint" />
          </mxGeometry>
        </mxCell>
        <mxCell id="oIikqwytzSIiOgdCLlzZ-23" value="" style="endArrow=none;html=1;rounded=0;exitX=0.667;exitY=0.667;exitDx=0;exitDy=0;exitPerimeter=0;entryX=0.5;entryY=1;entryDx=0;entryDy=0;entryPerimeter=0;" parent="1" source="b2gdafw9vcIs6ifxPlmt-4" target="oIikqwytzSIiOgdCLlzZ-1" edge="1">
          <mxGeometry width="50" height="50" relative="1" as="geometry">
            <mxPoint x="590" y="1080" as="sourcePoint" />
            <mxPoint x="640" y="1030" as="targetPoint" />
            <Array as="points">
              <mxPoint x="300" y="1130" />
            </Array>
          </mxGeometry>
        </mxCell>
        <mxCell id="oIikqwytzSIiOgdCLlzZ-24" value="" style="endArrow=none;html=1;rounded=0;entryX=0;entryY=0.5;entryDx=0;entryDy=0;entryPerimeter=0;" parent="1" target="b2gdafw9vcIs6ifxPlmt-60" edge="1">
          <mxGeometry width="50" height="50" relative="1" as="geometry">
            <mxPoint x="110" y="780" as="sourcePoint" />
            <mxPoint x="160" y="730" as="targetPoint" />
          </mxGeometry>
        </mxCell>
        <mxCell id="oIikqwytzSIiOgdCLlzZ-28" value="" style="endArrow=none;html=1;rounded=0;entryX=0.5;entryY=0.5;entryDx=0;entryDy=0;entryPerimeter=0;exitX=0;exitY=0.5;exitDx=0;exitDy=0;exitPerimeter=0;" parent="1" source="b2gdafw9vcIs6ifxPlmt-35" target="b2gdafw9vcIs6ifxPlmt-61" edge="1">
          <mxGeometry width="50" height="50" relative="1" as="geometry">
            <mxPoint x="430" y="390" as="sourcePoint" />
            <mxPoint x="480" y="340" as="targetPoint" />
          </mxGeometry>
        </mxCell>
        <mxCell id="oIikqwytzSIiOgdCLlzZ-29" value="" style="endArrow=none;html=1;rounded=0;entryX=0.633;entryY=0.833;entryDx=0;entryDy=0;entryPerimeter=0;exitX=0;exitY=0.5;exitDx=0;exitDy=0;exitPerimeter=0;" parent="1" source="b2gdafw9vcIs6ifxPlmt-37" target="b2gdafw9vcIs6ifxPlmt-61" edge="1">
          <mxGeometry width="50" height="50" relative="1" as="geometry">
            <mxPoint x="430" y="390" as="sourcePoint" />
            <mxPoint x="480" y="340" as="targetPoint" />
          </mxGeometry>
        </mxCell>
        <mxCell id="oIikqwytzSIiOgdCLlzZ-30" value="" style="endArrow=none;html=1;rounded=0;entryX=1;entryY=1;entryDx=0;entryDy=0;entryPerimeter=0;exitX=0;exitY=0.5;exitDx=0;exitDy=0;exitPerimeter=0;" parent="1" source="b2gdafw9vcIs6ifxPlmt-39" target="b2gdafw9vcIs6ifxPlmt-61" edge="1">
          <mxGeometry width="50" height="50" relative="1" as="geometry">
            <mxPoint x="430" y="390" as="sourcePoint" />
            <mxPoint x="480" y="340" as="targetPoint" />
          </mxGeometry>
        </mxCell>
        <mxCell id="oIikqwytzSIiOgdCLlzZ-36" value="" style="endArrow=none;html=1;rounded=0;entryX=0.5;entryY=1;entryDx=0;entryDy=0;entryPerimeter=0;exitX=1;exitY=0.3333333333333333;exitDx=0;exitDy=0;exitPerimeter=0;" parent="1" source="b2gdafw9vcIs6ifxPlmt-63" target="b2gdafw9vcIs6ifxPlmt-72" edge="1">
          <mxGeometry width="50" height="50" relative="1" as="geometry">
            <mxPoint x="910" y="390" as="sourcePoint" />
            <mxPoint x="960" y="340" as="targetPoint" />
          </mxGeometry>
        </mxCell>
        <mxCell id="oIikqwytzSIiOgdCLlzZ-37" value="" style="endArrow=none;html=1;rounded=0;entryX=0.767;entryY=0.95;entryDx=0;entryDy=0;entryPerimeter=0;exitX=0.145;exitY=0.145;exitDx=0;exitDy=0;exitPerimeter=0;" parent="1" source="b2gdafw9vcIs6ifxPlmt-69" target="b2gdafw9vcIs6ifxPlmt-63" edge="1">
          <mxGeometry width="50" height="50" relative="1" as="geometry">
            <mxPoint x="910" y="390" as="sourcePoint" />
            <mxPoint x="960" y="340" as="targetPoint" />
          </mxGeometry>
        </mxCell>
        <mxCell id="PvsV8ZNMPgOsQi2cF9u8-26" style="edgeStyle=orthogonalEdgeStyle;rounded=0;orthogonalLoop=1;jettySize=auto;html=1;" parent="1" source="PvsV8ZNMPgOsQi2cF9u8-3" target="PvsV8ZNMPgOsQi2cF9u8-15" edge="1">
          <mxGeometry relative="1" as="geometry">
            <Array as="points">
              <mxPoint x="695" y="860" />
            </Array>
          </mxGeometry>
        </mxCell>
        <mxCell id="PvsV8ZNMPgOsQi2cF9u8-29" style="edgeStyle=orthogonalEdgeStyle;rounded=0;orthogonalLoop=1;jettySize=auto;html=1;" parent="1" source="PvsV8ZNMPgOsQi2cF9u8-3" target="PvsV8ZNMPgOsQi2cF9u8-28" edge="1">
          <mxGeometry relative="1" as="geometry">
            <Array as="points">
              <mxPoint x="695" y="1030" />
              <mxPoint x="870" y="1030" />
              <mxPoint x="870" y="1120" />
            </Array>
          </mxGeometry>
        </mxCell>
        <mxCell id="PvsV8ZNMPgOsQi2cF9u8-31" style="edgeStyle=orthogonalEdgeStyle;rounded=0;orthogonalLoop=1;jettySize=auto;html=1;entryX=0.145;entryY=0.145;entryDx=0;entryDy=0;entryPerimeter=0;" parent="1" source="PvsV8ZNMPgOsQi2cF9u8-3" target="PvsV8ZNMPgOsQi2cF9u8-18" edge="1">
          <mxGeometry relative="1" as="geometry">
            <Array as="points">
              <mxPoint x="695" y="1000" />
            </Array>
          </mxGeometry>
        </mxCell>
        <mxCell id="PvsV8ZNMPgOsQi2cF9u8-36" style="edgeStyle=orthogonalEdgeStyle;rounded=0;orthogonalLoop=1;jettySize=auto;html=1;entryX=0;entryY=0.5;entryDx=0;entryDy=0;entryPerimeter=0;" parent="1" source="PvsV8ZNMPgOsQi2cF9u8-3" target="PvsV8ZNMPgOsQi2cF9u8-35" edge="1">
          <mxGeometry relative="1" as="geometry">
            <Array as="points">
              <mxPoint x="695" y="1070" />
              <mxPoint x="1310" y="1070" />
            </Array>
          </mxGeometry>
        </mxCell>
        <mxCell id="PvsV8ZNMPgOsQi2cF9u8-3" value="Cliente" style="shape=umlActor;verticalLabelPosition=bottom;verticalAlign=top;html=1;" parent="1" vertex="1">
          <mxGeometry x="680" y="900" width="30" height="60" as="geometry" />
        </mxCell>
        <mxCell id="PvsV8ZNMPgOsQi2cF9u8-4" value="Registro e inicio de sesion" style="swimlane;" parent="1" vertex="1">
          <mxGeometry x="750" y="800" width="890" height="610" as="geometry" />
        </mxCell>
        <mxCell id="PvsV8ZNMPgOsQi2cF9u8-8" value="Registrarse como usuario" style="strokeWidth=2;html=1;shape=mxgraph.flowchart.start_1;whiteSpace=wrap;" parent="PvsV8ZNMPgOsQi2cF9u8-4" vertex="1">
          <mxGeometry x="240" y="100" width="120" height="60" as="geometry" />
        </mxCell>
        <mxCell id="PvsV8ZNMPgOsQi2cF9u8-15" value="Crear cuenta" style="strokeWidth=2;html=1;shape=mxgraph.flowchart.start_1;whiteSpace=wrap;" parent="PvsV8ZNMPgOsQi2cF9u8-4" vertex="1">
          <mxGeometry x="110" y="30" width="120" height="60" as="geometry" />
        </mxCell>
        <mxCell id="PvsV8ZNMPgOsQi2cF9u8-18" value="Cambiar contraseña&lt;br&gt;(Por olvido de contraseña)" style="strokeWidth=2;html=1;shape=mxgraph.flowchart.start_1;whiteSpace=wrap;" parent="PvsV8ZNMPgOsQi2cF9u8-4" vertex="1">
          <mxGeometry x="360" y="190" width="130" height="70" as="geometry" />
        </mxCell>
        <mxCell id="PvsV8ZNMPgOsQi2cF9u8-21" value="Cambiar nombre usuario" style="strokeWidth=2;html=1;shape=mxgraph.flowchart.start_1;whiteSpace=wrap;" parent="PvsV8ZNMPgOsQi2cF9u8-4" vertex="1">
          <mxGeometry x="50" y="400" width="120" height="60" as="geometry" />
        </mxCell>
        <mxCell id="PvsV8ZNMPgOsQi2cF9u8-22" value="Cambiar Email" style="strokeWidth=2;html=1;shape=mxgraph.flowchart.start_1;whiteSpace=wrap;" parent="PvsV8ZNMPgOsQi2cF9u8-4" vertex="1">
          <mxGeometry x="540" y="420" width="120" height="60" as="geometry" />
        </mxCell>
        <mxCell id="PvsV8ZNMPgOsQi2cF9u8-33" style="edgeStyle=orthogonalEdgeStyle;rounded=0;orthogonalLoop=1;jettySize=auto;html=1;" parent="PvsV8ZNMPgOsQi2cF9u8-4" source="PvsV8ZNMPgOsQi2cF9u8-28" target="PvsV8ZNMPgOsQi2cF9u8-21" edge="1">
          <mxGeometry relative="1" as="geometry" />
        </mxCell>
        <mxCell id="PvsV8ZNMPgOsQi2cF9u8-34" style="edgeStyle=orthogonalEdgeStyle;rounded=0;orthogonalLoop=1;jettySize=auto;html=1;" parent="PvsV8ZNMPgOsQi2cF9u8-4" source="PvsV8ZNMPgOsQi2cF9u8-28" target="PvsV8ZNMPgOsQi2cF9u8-32" edge="1">
          <mxGeometry relative="1" as="geometry">
            <Array as="points">
              <mxPoint x="310" y="340" />
            </Array>
          </mxGeometry>
        </mxCell>
        <mxCell id="PvsV8ZNMPgOsQi2cF9u8-28" value="Iniciar sesion" style="strokeWidth=2;html=1;shape=mxgraph.flowchart.start_1;whiteSpace=wrap;" parent="PvsV8ZNMPgOsQi2cF9u8-4" vertex="1">
          <mxGeometry x="180" y="290" width="120" height="60" as="geometry" />
        </mxCell>
        <mxCell id="PvsV8ZNMPgOsQi2cF9u8-30" value="Verificar email" style="strokeWidth=2;html=1;shape=mxgraph.flowchart.start_1;whiteSpace=wrap;" parent="PvsV8ZNMPgOsQi2cF9u8-4" vertex="1">
          <mxGeometry x="720" y="415" width="130" height="70" as="geometry" />
        </mxCell>
        <mxCell id="PvsV8ZNMPgOsQi2cF9u8-32" value="Cambiar contraseña" style="strokeWidth=2;html=1;shape=mxgraph.flowchart.start_1;whiteSpace=wrap;" parent="PvsV8ZNMPgOsQi2cF9u8-4" vertex="1">
          <mxGeometry x="250" y="410" width="120" height="60" as="geometry" />
        </mxCell>
        <mxCell id="PvsV8ZNMPgOsQi2cF9u8-37" style="edgeStyle=orthogonalEdgeStyle;rounded=0;orthogonalLoop=1;jettySize=auto;html=1;" parent="PvsV8ZNMPgOsQi2cF9u8-4" source="PvsV8ZNMPgOsQi2cF9u8-35" target="PvsV8ZNMPgOsQi2cF9u8-30" edge="1">
          <mxGeometry relative="1" as="geometry" />
        </mxCell>
        <mxCell id="PvsV8ZNMPgOsQi2cF9u8-38" style="edgeStyle=orthogonalEdgeStyle;rounded=0;orthogonalLoop=1;jettySize=auto;html=1;" parent="PvsV8ZNMPgOsQi2cF9u8-4" source="PvsV8ZNMPgOsQi2cF9u8-35" target="PvsV8ZNMPgOsQi2cF9u8-22" edge="1">
          <mxGeometry relative="1" as="geometry" />
        </mxCell>
        <mxCell id="PvsV8ZNMPgOsQi2cF9u8-35" value="Cambiar correo" style="strokeWidth=2;html=1;shape=mxgraph.flowchart.start_1;whiteSpace=wrap;" parent="PvsV8ZNMPgOsQi2cF9u8-4" vertex="1">
          <mxGeometry x="560" y="250" width="130" height="70" as="geometry" />
        </mxCell>
        <mxCell id="PvsV8ZNMPgOsQi2cF9u8-12" style="edgeStyle=orthogonalEdgeStyle;rounded=0;orthogonalLoop=1;jettySize=auto;html=1;entryX=0.145;entryY=0.855;entryDx=0;entryDy=0;entryPerimeter=0;" parent="1" source="PvsV8ZNMPgOsQi2cF9u8-3" target="PvsV8ZNMPgOsQi2cF9u8-8" edge="1">
          <mxGeometry relative="1" as="geometry" />
        </mxCell>
        <mxCell id="wPcE5DeIWJKnM4BneBvL-1" value="Cambiar datos" style="swimlane;" vertex="1" parent="1">
          <mxGeometry x="140" y="1310" width="560" height="580" as="geometry" />
        </mxCell>
        <mxCell id="wPcE5DeIWJKnM4BneBvL-17" style="edgeStyle=orthogonalEdgeStyle;rounded=0;orthogonalLoop=1;jettySize=auto;html=1;entryX=0.5;entryY=0;entryDx=0;entryDy=0;entryPerimeter=0;" edge="1" parent="wPcE5DeIWJKnM4BneBvL-1" source="wPcE5DeIWJKnM4BneBvL-2" target="wPcE5DeIWJKnM4BneBvL-3">
          <mxGeometry relative="1" as="geometry">
            <mxPoint x="280" y="150" as="targetPoint" />
          </mxGeometry>
        </mxCell>
        <mxCell id="wPcE5DeIWJKnM4BneBvL-19" style="edgeStyle=orthogonalEdgeStyle;rounded=0;orthogonalLoop=1;jettySize=auto;html=1;exitX=0.5;exitY=1;exitDx=0;exitDy=0;exitPerimeter=0;" edge="1" parent="wPcE5DeIWJKnM4BneBvL-1" source="wPcE5DeIWJKnM4BneBvL-2">
          <mxGeometry relative="1" as="geometry">
            <mxPoint x="350" y="210" as="targetPoint" />
          </mxGeometry>
        </mxCell>
        <mxCell id="wPcE5DeIWJKnM4BneBvL-2" value="login redundante" style="strokeWidth=2;html=1;shape=mxgraph.flowchart.start_1;whiteSpace=wrap;" vertex="1" parent="wPcE5DeIWJKnM4BneBvL-1">
          <mxGeometry x="220" y="60" width="120" height="60" as="geometry" />
        </mxCell>
        <mxCell id="wPcE5DeIWJKnM4BneBvL-3" value="cambiar contrasena" style="strokeWidth=2;html=1;shape=mxgraph.flowchart.start_1;whiteSpace=wrap;" vertex="1" parent="wPcE5DeIWJKnM4BneBvL-1">
          <mxGeometry x="20" y="210" width="120" height="60" as="geometry" />
        </mxCell>
        <mxCell id="wPcE5DeIWJKnM4BneBvL-14" style="edgeStyle=orthogonalEdgeStyle;rounded=0;orthogonalLoop=1;jettySize=auto;html=1;" edge="1" parent="wPcE5DeIWJKnM4BneBvL-1" source="wPcE5DeIWJKnM4BneBvL-4">
          <mxGeometry relative="1" as="geometry">
            <mxPoint x="280" y="350" as="targetPoint" />
            <Array as="points">
              <mxPoint x="210" y="310" />
              <mxPoint x="281" y="310" />
              <mxPoint x="281" y="350" />
            </Array>
          </mxGeometry>
        </mxCell>
        <mxCell id="wPcE5DeIWJKnM4BneBvL-4" value="cambiar nombre" style="strokeWidth=2;html=1;shape=mxgraph.flowchart.start_1;whiteSpace=wrap;" vertex="1" parent="wPcE5DeIWJKnM4BneBvL-1">
          <mxGeometry x="150" y="210" width="120" height="60" as="geometry" />
        </mxCell>
        <mxCell id="wPcE5DeIWJKnM4BneBvL-5" value="cambiar email" style="strokeWidth=2;html=1;shape=mxgraph.flowchart.start_1;whiteSpace=wrap;" vertex="1" parent="wPcE5DeIWJKnM4BneBvL-1">
          <mxGeometry x="290" y="210" width="120" height="60" as="geometry" />
        </mxCell>
        <mxCell id="wPcE5DeIWJKnM4BneBvL-8" style="edgeStyle=orthogonalEdgeStyle;rounded=0;orthogonalLoop=1;jettySize=auto;html=1;exitX=0.5;exitY=0;exitDx=0;exitDy=0;exitPerimeter=0;entryX=0.5;entryY=0;entryDx=0;entryDy=0;entryPerimeter=0;" edge="1" parent="wPcE5DeIWJKnM4BneBvL-1" source="wPcE5DeIWJKnM4BneBvL-4" target="wPcE5DeIWJKnM4BneBvL-5">
          <mxGeometry relative="1" as="geometry">
            <Array as="points">
              <mxPoint x="210" y="190" />
              <mxPoint x="350" y="190" />
            </Array>
          </mxGeometry>
        </mxCell>
        <mxCell id="wPcE5DeIWJKnM4BneBvL-21" value="" style="edgeStyle=orthogonalEdgeStyle;rounded=0;orthogonalLoop=1;jettySize=auto;html=1;" edge="1" parent="wPcE5DeIWJKnM4BneBvL-1" source="wPcE5DeIWJKnM4BneBvL-11" target="wPcE5DeIWJKnM4BneBvL-12">
          <mxGeometry relative="1" as="geometry" />
        </mxCell>
        <mxCell id="wPcE5DeIWJKnM4BneBvL-11" value="verificar email" style="strokeWidth=2;html=1;shape=mxgraph.flowchart.start_1;whiteSpace=wrap;" vertex="1" parent="wPcE5DeIWJKnM4BneBvL-1">
          <mxGeometry x="220" y="350" width="120" height="60" as="geometry" />
        </mxCell>
        <mxCell id="wPcE5DeIWJKnM4BneBvL-12" value="cambiar dato" style="strokeWidth=2;html=1;shape=mxgraph.flowchart.start_1;whiteSpace=wrap;" vertex="1" parent="wPcE5DeIWJKnM4BneBvL-1">
          <mxGeometry x="220" y="450" width="120" height="60" as="geometry" />
        </mxCell>
        <mxCell id="wPcE5DeIWJKnM4BneBvL-13" style="edgeStyle=orthogonalEdgeStyle;rounded=0;orthogonalLoop=1;jettySize=auto;html=1;entryX=0.5;entryY=0;entryDx=0;entryDy=0;entryPerimeter=0;" edge="1" parent="wPcE5DeIWJKnM4BneBvL-1" source="wPcE5DeIWJKnM4BneBvL-5" target="wPcE5DeIWJKnM4BneBvL-11">
          <mxGeometry relative="1" as="geometry" />
        </mxCell>
        <mxCell id="wPcE5DeIWJKnM4BneBvL-15" style="edgeStyle=orthogonalEdgeStyle;rounded=0;orthogonalLoop=1;jettySize=auto;html=1;entryX=0;entryY=0.5;entryDx=0;entryDy=0;entryPerimeter=0;" edge="1" parent="wPcE5DeIWJKnM4BneBvL-1" source="wPcE5DeIWJKnM4BneBvL-3" target="wPcE5DeIWJKnM4BneBvL-11">
          <mxGeometry relative="1" as="geometry">
            <Array as="points">
              <mxPoint x="80" y="380" />
            </Array>
          </mxGeometry>
        </mxCell>
        <mxCell id="wPcE5DeIWJKnM4BneBvL-18" style="edgeStyle=orthogonalEdgeStyle;rounded=0;orthogonalLoop=1;jettySize=auto;html=1;entryX=0.5;entryY=0;entryDx=0;entryDy=0;entryPerimeter=0;" edge="1" parent="wPcE5DeIWJKnM4BneBvL-1" target="wPcE5DeIWJKnM4BneBvL-4">
          <mxGeometry relative="1" as="geometry">
            <mxPoint x="280" y="120" as="sourcePoint" />
          </mxGeometry>
        </mxCell>
        <mxCell id="wPcE5DeIWJKnM4BneBvL-9" style="edgeStyle=orthogonalEdgeStyle;rounded=0;orthogonalLoop=1;jettySize=auto;html=1;exitX=0.5;exitY=0.5;exitDx=0;exitDy=0;exitPerimeter=0;entryX=0.5;entryY=0;entryDx=0;entryDy=0;entryPerimeter=0;" edge="1" parent="1" source="b2gdafw9vcIs6ifxPlmt-5" target="wPcE5DeIWJKnM4BneBvL-3">
          <mxGeometry relative="1" as="geometry">
            <Array as="points">
              <mxPoint x="95" y="1500" />
              <mxPoint x="220" y="1500" />
            </Array>
          </mxGeometry>
        </mxCell>
        <mxCell id="wPcE5DeIWJKnM4BneBvL-10" style="edgeStyle=orthogonalEdgeStyle;rounded=0;orthogonalLoop=1;jettySize=auto;html=1;exitX=0.5;exitY=0.5;exitDx=0;exitDy=0;exitPerimeter=0;entryX=0.5;entryY=0;entryDx=0;entryDy=0;entryPerimeter=0;" edge="1" parent="1" source="b2gdafw9vcIs6ifxPlmt-5" target="wPcE5DeIWJKnM4BneBvL-2">
          <mxGeometry relative="1" as="geometry">
            <Array as="points">
              <mxPoint x="95" y="1350" />
              <mxPoint x="420" y="1350" />
            </Array>
          </mxGeometry>
        </mxCell>
        <mxCell id="wPcE5DeIWJKnM4BneBvL-22" value="gestor de mazos" style="shape=umlActor;verticalLabelPosition=bottom;verticalAlign=top;html=1;outlineConnect=0;" vertex="1" parent="1">
          <mxGeometry x="1770" y="900" width="30" height="60" as="geometry" />
        </mxCell>
        <mxCell id="wPcE5DeIWJKnM4BneBvL-23" value="gestor de mazos" style="shape=umlActor;verticalLabelPosition=bottom;verticalAlign=top;html=1;outlineConnect=0;" vertex="1" parent="1">
          <mxGeometry x="810" y="1580" width="30" height="60" as="geometry" />
        </mxCell>
        <mxCell id="wPcE5DeIWJKnM4BneBvL-24" style="edgeStyle=orthogonalEdgeStyle;rounded=0;orthogonalLoop=1;jettySize=auto;html=1;exitX=0.5;exitY=0.5;exitDx=0;exitDy=0;exitPerimeter=0;entryX=1;entryY=0.5;entryDx=0;entryDy=0;entryPerimeter=0;" edge="1" parent="1" source="wPcE5DeIWJKnM4BneBvL-23" target="wPcE5DeIWJKnM4BneBvL-11">
          <mxGeometry relative="1" as="geometry" />
        </mxCell>
        <mxCell id="wPcE5DeIWJKnM4BneBvL-26" style="edgeStyle=orthogonalEdgeStyle;rounded=0;orthogonalLoop=1;jettySize=auto;html=1;exitX=0.5;exitY=0.5;exitDx=0;exitDy=0;exitPerimeter=0;entryX=1;entryY=0.5;entryDx=0;entryDy=0;entryPerimeter=0;" edge="1" parent="1" source="wPcE5DeIWJKnM4BneBvL-22" target="PvsV8ZNMPgOsQi2cF9u8-8">
          <mxGeometry relative="1" as="geometry" />
        </mxCell>
        <mxCell id="wPcE5DeIWJKnM4BneBvL-27" style="edgeStyle=orthogonalEdgeStyle;rounded=0;orthogonalLoop=1;jettySize=auto;html=1;exitX=0.5;exitY=0.5;exitDx=0;exitDy=0;exitPerimeter=0;entryX=1;entryY=0.5;entryDx=0;entryDy=0;entryPerimeter=0;" edge="1" parent="1" source="wPcE5DeIWJKnM4BneBvL-22" target="PvsV8ZNMPgOsQi2cF9u8-18">
          <mxGeometry relative="1" as="geometry" />
        </mxCell>
        <mxCell id="wPcE5DeIWJKnM4BneBvL-28" style="edgeStyle=orthogonalEdgeStyle;rounded=0;orthogonalLoop=1;jettySize=auto;html=1;exitX=0.5;exitY=0.5;exitDx=0;exitDy=0;exitPerimeter=0;entryX=1;entryY=0.5;entryDx=0;entryDy=0;entryPerimeter=0;" edge="1" parent="1" source="wPcE5DeIWJKnM4BneBvL-22" target="PvsV8ZNMPgOsQi2cF9u8-15">
          <mxGeometry relative="1" as="geometry" />
        </mxCell>
      </root>
    </mxGraphModel>
  </diagram>
</mxfile>
